<svg width="800" height="460" viewBox="0 0 800 460" fill="none" xmlns="http://www.w3.org/2000/svg">
<g clip-path="url(#clip0_1_2)">
<path d="M244.883 381.577H223.225C222.459 345.02 220.349 310.651 216.901 278.446H216.708L183.733 381.577H167.244L134.465 278.446H134.277C131.845 309.366 130.314 343.743 129.678 381.577H109.936C111.208 335.57 114.406 292.437 119.516 252.176H146.36L177.602 347.259H177.794L209.229 252.176H234.914C240.539 299.334 243.862 342.471 244.883 381.577ZM338.811 286.105C329.992 333.958 318.358 368.729 303.919 390.433C292.669 407.14 280.344 415.502 266.922 415.502C263.344 415.502 258.928 414.422 253.697 412.28V400.741C256.254 401.109 259.255 401.319 262.703 401.319C268.973 401.319 274.012 399.594 277.854 396.137C282.449 391.927 284.747 387.194 284.747 381.958C284.747 378.367 282.955 371.026 279.381 359.911L255.614 286.101H276.891L293.95 341.303C297.783 353.838 299.382 362.589 298.742 367.574C308.071 342.659 314.587 315.493 318.299 286.097H338.811V286.105Z" fill="#5D87A1"/>
<path d="M627.106 381.577H565.584V252.176H586.28V365.648H627.106V381.577ZM549.48 384.704L525.691 372.964C527.801 371.231 529.818 369.356 531.634 367.184C541.746 355.307 546.789 337.742 546.789 314.476C546.789 271.666 529.989 250.251 496.378 250.251C479.897 250.251 467.04 255.683 457.845 266.552C447.742 278.438 442.699 295.94 442.699 319.08C442.699 341.826 447.169 358.513 456.113 369.097C464.295 378.685 476.628 383.486 493.122 383.486C499.274 383.486 504.92 382.732 510.064 381.213L541.034 399.243L549.48 384.704ZM472.418 355.684C467.178 347.255 464.558 333.72 464.558 315.058C464.558 282.476 474.456 266.167 494.273 266.167C504.631 266.167 512.223 270.067 517.078 277.852C522.31 286.293 524.942 299.707 524.942 318.109C524.942 350.958 515.036 367.385 495.232 367.385C484.869 367.389 477.277 363.501 472.418 355.684ZM433.68 345.71C433.68 356.684 429.654 365.686 421.61 372.738C413.558 379.761 402.76 383.281 389.229 383.281C376.573 383.281 364.303 379.238 352.425 371.194L357.987 360.082C368.207 365.201 377.461 367.745 385.768 367.745C393.565 367.745 399.659 366.017 404.078 362.589C408.494 359.149 411.126 354.323 411.126 348.221C411.126 340.533 405.765 333.962 395.93 328.459C386.861 323.479 368.722 313.066 368.722 313.066C358.891 305.901 353.969 298.209 353.969 285.536C353.969 275.048 357.64 266.581 364.985 260.14C372.338 253.674 381.826 250.452 393.456 250.452C405.468 250.452 416.387 253.67 426.222 260.04L421.233 271.156C412.821 267.581 404.518 265.794 396.328 265.794C389.694 265.794 384.571 267.389 381.01 270.591C377.419 273.78 375.205 277.86 375.205 282.866C375.205 290.516 380.679 297.171 390.782 302.783C399.973 307.772 418.563 318.364 418.563 318.364C428.645 325.517 433.68 333.138 433.68 345.71Z" fill="#F8981D"/>
<path d="M653.088 208.834C640.574 208.516 630.886 209.776 622.754 213.216C620.406 214.154 616.673 214.154 616.346 217.121C617.614 218.376 617.761 220.402 618.862 222.135C620.737 225.261 624.005 229.467 626.989 231.66C630.266 234.171 633.556 236.657 637.004 238.846C643.085 242.609 649.978 244.797 655.905 248.547C659.357 250.728 662.789 253.549 666.246 255.896C667.945 257.148 669.033 259.178 671.239 259.96V259.483C670.134 258.077 669.82 256.043 668.736 254.478L664.04 249.949C659.504 243.856 653.866 238.536 647.785 234.167C642.78 230.718 631.831 226.031 629.802 220.264L629.483 219.946C632.924 219.624 637.004 218.376 640.273 217.418C645.592 216.016 650.443 216.334 655.9 214.932C658.411 214.304 660.902 213.517 663.421 212.743V211.333C660.592 208.516 658.575 204.775 655.599 202.113C647.639 195.237 638.867 188.511 629.802 182.882C624.947 179.747 618.703 177.73 613.534 175.064C611.671 174.122 608.533 173.658 607.436 172.093C604.632 168.652 603.054 164.124 601.02 160.052C596.5 151.46 592.11 141.926 588.209 132.84C585.389 126.746 583.673 120.661 580.232 115.024C564.119 88.4477 546.621 72.3515 519.727 56.5525C513.948 53.2629 507.071 51.8609 499.726 50.1366L487.995 49.5172C485.493 48.4207 482.986 45.445 480.801 44.0388C471.878 38.4139 448.906 26.2225 442.344 42.3187C438.116 52.4929 448.596 62.4954 452.195 67.6557C454.853 71.2383 458.297 75.3146 460.156 79.3826C461.256 82.0402 461.566 84.861 462.667 87.6692C465.169 94.5497 467.509 102.204 470.798 108.624C472.514 111.897 474.385 115.337 476.578 118.301C477.834 120.033 480.018 120.799 480.496 123.624C478.315 126.738 478.143 131.438 476.892 135.347C471.267 153.012 473.464 174.897 481.437 187.879C483.932 191.788 489.883 200.393 497.843 197.095C504.891 194.282 503.33 185.372 505.355 177.558C505.82 175.671 505.515 174.432 506.452 173.193V173.499C508.632 177.872 510.834 182.087 512.855 186.473C517.706 194.127 526.152 202.104 533.187 207.407C536.933 210.236 539.9 215.074 544.591 216.803V216.334H544.282C543.332 214.932 541.942 214.304 540.695 213.216C537.874 210.399 534.752 206.959 532.563 203.837C526.009 195.078 520.209 185.38 515.061 175.374C512.541 170.519 510.369 165.212 508.339 160.366C507.394 158.495 507.394 155.674 505.824 154.732C503.472 158.168 500.044 161.144 498.329 165.354C495.353 172.088 495.043 180.371 493.938 188.984L493.323 189.285C488.343 188.034 486.61 182.882 484.718 178.508C480.035 167.401 479.248 149.572 483.312 136.757C484.4 133.48 489.109 123.16 487.229 120.037C486.288 117.045 483.157 115.342 481.441 112.985C479.424 110.022 477.214 106.272 475.808 102.983C472.058 94.2316 470.171 84.5346 466.132 75.7875C464.245 71.7112 460.968 67.4925 458.314 63.7384C455.334 59.5198 452.057 56.5483 449.701 51.547C448.923 49.8269 447.83 47.0145 449.082 45.1437C449.387 43.8881 450.023 43.4194 451.27 43.1055C453.296 41.3938 459.084 43.5701 461.114 44.5117C466.91 46.8554 471.757 49.0443 476.595 52.3254C478.784 53.8949 481.132 56.8664 483.94 57.649H487.229C492.222 58.7371 497.851 57.9503 502.551 59.3649C510.834 62.0267 518.338 65.9314 525.068 70.1459C545.546 83.1325 562.433 101.585 573.833 123.624C575.704 127.215 576.499 130.504 578.207 134.25C581.5 141.917 585.573 149.735 588.841 157.239C592.127 164.584 595.257 172.084 599.949 178.186C602.288 181.467 611.688 183.187 615.903 184.908C619.021 186.31 623.875 187.557 626.688 189.277C632.007 192.554 637.306 196.316 642.307 199.92C644.797 201.795 652.623 205.704 653.088 208.834ZM493.608 72.9667C491.449 72.9443 489.297 73.2089 487.209 73.7535V74.0674H487.51C488.77 76.566 490.958 78.2986 492.52 80.4791C493.779 82.986 494.872 85.472 496.106 87.9748L496.408 87.665C498.613 86.104 499.71 83.6012 499.71 79.8471C498.76 78.7423 498.613 77.6625 497.822 76.566C496.901 75.0007 494.872 74.2223 493.608 72.9667Z" fill="#5D87A1"/>
<path d="M667.979 381.556H671.218V365.703H666.359L662.396 376.522L658.089 365.703H653.41V381.556H656.469V369.495H656.641L661.153 381.556H663.484L667.979 369.495V381.556ZM641.884 381.556H645.312V368.39H649.798V365.699H637.209V368.39H641.876L641.884 381.556Z" fill="#F8981D"/>
</g>
<defs>
<clipPath id="clip0_1_2">
<rect width="800" height="460" fill="white"/>
</clipPath>
</defs>
</svg>
