<svg width="686" height="516" viewBox="0 0 686 516" fill="none" xmlns="http://www.w3.org/2000/svg">
<g clip-path="url(#clip0_2_32)">
<path d="M590.44 296.063C566.465 296.199 545.704 301.95 528.291 310.544C521.862 297.82 515.433 286.716 514.363 278.398C513.158 268.744 511.685 262.857 513.158 251.333C514.631 239.81 521.327 223.459 521.327 222.134C521.19 221.018 519.851 215.047 506.058 214.907C492.263 214.774 480.341 217.698 479.002 221.213C477.662 224.841 474.983 233.127 473.242 241.693C470.831 254.277 445.65 298.886 431.319 322.327C426.631 313.231 422.612 305.195 421.808 298.75C420.602 289.096 419.129 283.208 420.602 271.685C422.075 260.161 428.772 243.811 428.772 242.486C428.639 241.37 427.299 235.399 413.504 235.259C399.707 235.125 387.788 238.049 386.449 241.565C385.109 245.192 383.636 253.758 380.689 262.045C377.875 270.36 344.39 344.821 335.684 364.241C331.264 374.146 327.381 382.07 324.567 387.399C321.754 392.756 324.433 387.678 324.165 388.236C321.755 392.784 320.415 395.323 320.415 395.323V395.46C318.54 398.808 316.531 402.017 315.592 402.017C314.922 402.017 313.583 393.032 315.86 380.728C320.816 354.863 332.87 314.561 332.738 313.088C332.738 312.53 335.014 305.304 324.968 301.704C315.19 298.077 311.709 304.215 310.904 304.215C310.101 304.215 309.431 306.448 309.431 306.448C309.431 306.448 320.28 261.043 288.67 261.043C268.847 261.043 241.523 282.611 227.995 302.296C219.423 306.983 201.207 316.889 181.92 327.491C174.553 331.509 166.918 335.806 159.686 339.684L158.213 338.01C119.906 297.159 49.052 268.228 51.9986 213.311C53.0701 193.362 60.0351 140.717 188.083 76.9609C292.959 24.7259 376.939 39.0563 391.537 70.9341C412.298 116.473 346.667 201.124 237.641 213.311C196.12 217.999 174.286 201.928 168.796 195.901C163.037 189.595 162.233 189.344 160.09 190.544C156.607 192.497 158.751 198.049 160.09 201.397C163.304 209.824 176.698 224.835 199.468 232.338C219.424 238.895 268.18 242.522 327.113 219.754C393.146 194.168 444.713 123.183 429.578 63.8471C414.175 3.43965 313.987 -16.3846 219.291 17.2343C162.901 37.3236 101.824 68.6685 57.892 109.787C5.6553 158.543 -2.649 201.135 0.833444 218.817C13.0234 281.902 99.9493 323.021 134.774 353.426C133.032 354.263 131.425 355.379 129.952 356.216C112.54 364.782 46.2392 399.478 29.6306 436.177C10.879 477.698 32.5773 507.569 47.0429 511.587C91.779 524.032 137.587 501.682 162.366 464.841C187.009 428.007 184.064 380.192 172.679 358.359L172.275 357.522L185.937 349.486C194.779 344.269 203.485 339.442 211.118 335.284C206.834 346.947 203.752 360.731 202.146 380.823C200.271 404.4 209.914 434.936 222.639 446.989C228.264 452.207 234.961 452.346 239.113 452.346C253.847 452.346 260.544 440.153 267.91 425.561C277.018 407.731 285.055 387.117 285.055 387.117C285.055 387.117 275.009 442.971 302.467 442.971C312.512 442.971 322.558 429.969 327.112 423.273V423.406C327.112 423.406 327.38 423.127 327.916 422.011C328.477 421.191 329.013 420.353 329.523 419.5V419.232C333.541 412.257 342.515 396.325 355.909 369.941C373.186 335.92 389.796 293.328 389.796 293.328C389.796 293.328 391.403 303.764 396.359 320.923C399.304 331.107 405.733 342.212 410.689 353.069C406.671 358.705 404.26 361.914 404.26 361.914L404.394 362.047C401.181 366.344 397.563 370.893 393.814 375.441C380.152 391.791 363.812 410.401 361.668 415.759C359.124 422.036 359.66 426.752 364.615 430.491C368.231 433.281 374.661 433.699 381.492 433.281C393.814 432.444 402.386 429.403 406.672 427.533C413.369 425.022 421.004 421.506 428.371 416.149C441.765 406.244 449.935 392.182 449.132 373.423C448.73 363.1 445.381 352.943 441.229 343.286C442.434 341.612 443.643 339.799 444.845 337.929C466.008 306.989 482.349 272.968 482.349 272.968C482.349 272.968 483.956 283.432 488.912 300.563C491.456 309.269 496.546 318.783 501.1 328.158C481.277 344.369 468.821 363.119 464.535 375.441C456.632 398.208 462.794 408.524 474.446 410.934C479.669 412.05 487.171 409.539 492.795 407.196C499.76 404.963 508.198 401.029 515.968 395.281C529.362 385.376 542.22 371.565 541.55 352.954C541.15 344.389 538.872 335.934 535.791 327.899C552.667 320.923 574.498 316.905 602.225 320.254C661.829 327.229 673.615 364.456 671.34 379.991C669.063 395.533 656.606 404.098 652.453 406.777C648.301 409.288 646.961 410.265 647.363 412.134C647.9 414.952 649.774 414.924 653.391 414.366C658.347 413.529 684.733 401.643 685.804 372.98C687.411 336.141 652.453 295.959 590.439 296.358L590.44 296.063ZM130.757 451.032C111.067 472.6 83.3417 480.767 71.5549 473.8C58.8306 466.434 63.785 434.687 88.0295 411.785C102.763 397.862 121.916 385 134.507 377.095C137.32 375.421 141.606 372.798 146.695 369.729C147.499 369.171 148.035 368.892 148.035 368.892C148.972 368.334 150.044 367.776 151.115 366.939C160.089 399.62 151.517 428.284 130.756 450.92L130.757 451.032ZM274.742 353.122C267.911 369.863 253.446 412.86 244.74 410.449C237.238 408.496 232.685 375.893 243.264 343.747C248.621 327.536 260.006 308.25 266.703 300.75C277.554 288.697 289.339 284.679 292.287 289.617C295.77 296.063 279.028 342.675 274.742 353.122ZM393.547 409.913C390.601 411.308 387.922 412.424 386.717 411.587C385.779 411.029 387.922 409.076 387.922 409.076C387.922 409.076 402.789 393.144 408.683 385.778C412.031 381.509 416.049 376.543 420.336 370.906V372.581C420.337 391.861 401.852 404.687 393.547 409.913ZM485.161 389.015C483.019 387.341 483.286 382.458 490.519 366.917C493.333 360.75 499.761 350.454 510.878 340.661C512.217 344.679 513.024 348.557 512.887 352.184C512.754 376.291 495.61 385.265 485.161 389.015Z" fill="#CF649A"/>
</g>
<defs>
<clipPath id="clip0_2_32">
<rect width="686" height="516" fill="white"/>
</clipPath>
</defs>
</svg>
