<svg width="760" height="520" viewBox="0 0 760 520" fill="none" xmlns="http://www.w3.org/2000/svg">
<path d="M205 190C228.333 96.6667 286.667 50 380 50C520 50 537.5 155 607.5 172.5C654.167 184.167 695 166.667 730 120C706.667 213.333 648.333 260 555 260C415 260 397.5 155 327.5 137.5C280.833 125.833 240 143.333 205 190ZM30 400C53.3333 306.667 111.667 260 205 260C345 260 362.5 365 432.5 382.5C479.167 394.167 520 376.667 555 330C531.667 423.333 473.333 470 380 470C240 470 222.5 365 152.5 347.5C105.833 335.833 65 353.333 30 400Z" fill="#44A8B3"/>
</svg>
