<svg width="800" height="662" viewBox="0 0 800 662" fill="none" xmlns="http://www.w3.org/2000/svg">
<path d="M400 22.0666C293.333 22.0666 226.667 75.3832 200 182.016C240 128.7 286.666 108.717 340 122.033C370.433 129.633 392.183 151.716 416.266 176.15C455.466 215.933 500.85 262 600 262C706.666 262 773.333 208.683 800 102.033C760 155.35 713.333 175.35 660 162.033C629.583 154.433 607.833 132.35 583.75 107.917C544.533 68.1165 499.133 22.0666 400 22.0666ZM200 262C93.3333 262 26.6667 315.316 0 421.966C40 368.65 86.6666 348.65 140 361.983C170.417 369.6 192.167 391.666 216.25 416.083C255.467 455.883 300.866 501.95 400 501.95C506.666 501.95 573.333 448.633 600 341.983C560 395.3 513.333 415.3 460 401.966C429.566 394.366 407.816 372.283 383.733 347.866C344.533 308.066 299.15 262 200 262Z" fill="#00ACC1"/>
<path d="M6.1377 595.13V590.081C6.1377 588.613 6.62109 587.396 7.58789 586.429C8.55469 585.462 9.77214 584.979 11.2402 584.979H79.3994C80.8675 584.979 82.085 585.462 83.0518 586.429C84.0186 587.396 84.502 588.613 84.502 590.081V595.13C84.502 596.598 84.0186 597.815 83.0518 598.782C82.085 599.713 80.8675 600.179 79.3994 600.179H55.4443V657.059C55.4443 658.455 54.943 659.637 53.9404 660.604C52.9736 661.535 51.792 662 50.3955 662H40.2441C38.8477 662 37.6481 661.535 36.6455 660.604C35.6787 659.637 35.1953 658.455 35.1953 657.059V600.179H11.2402C9.77214 600.179 8.55469 599.713 7.58789 598.782C6.62109 597.815 6.1377 596.598 6.1377 595.13ZM90.625 658.133C85.8984 654.839 83.5352 650.184 83.5352 644.168C83.5352 638.152 85.8984 633.533 90.625 630.311C95.3874 627.088 101.51 625.477 108.994 625.477H126.772C126.772 621.287 125.895 618.369 124.141 616.722C122.386 615.075 119.307 614.251 114.902 614.251C110.534 614.251 107.454 615.343 105.664 617.527C103.91 619.676 101.743 620.75 99.165 620.75H91.1621C90.1953 620.75 89.3896 620.446 88.7451 619.837C88.1364 619.192 87.832 618.405 87.832 617.474C87.832 607.197 97.5895 602.059 117.104 602.059C125.627 602.059 132.466 603.974 137.622 607.806C142.778 611.601 145.356 617.492 145.356 625.477V658.724C145.356 659.69 145.052 660.478 144.443 661.087C143.835 661.696 143.047 662 142.08 662H131.714C130.747 662 129.959 661.696 129.351 661.087C128.742 660.442 128.438 659.655 128.438 658.724V657.059C122.78 661.105 116.245 663.11 108.833 663.074C101.457 663.074 95.3874 661.427 90.625 658.133ZM110.283 637.669C107.777 637.669 105.789 638.278 104.321 639.495C102.889 640.713 102.173 642.288 102.173 644.222C102.173 646.155 102.925 647.749 104.429 649.002C105.933 650.255 108.063 650.882 110.82 650.882C116.335 650.882 121.652 649.271 126.772 646.048V637.669H110.283ZM158.623 591.907V590.081C158.623 588.183 159.16 586.679 160.234 585.569C161.344 584.459 162.866 583.904 164.8 583.904H171.46C173.358 583.904 174.862 584.459 175.972 585.569C177.082 586.644 177.637 588.147 177.637 590.081V591.907C177.637 593.805 177.082 595.309 175.972 596.419C174.897 597.529 173.394 598.084 171.46 598.084H164.8C162.902 598.084 161.398 597.529 160.288 596.419C159.178 595.309 158.623 593.805 158.623 591.907ZM158.838 658.724V607.752C158.838 606.785 159.142 605.997 159.751 605.389C160.396 604.78 161.183 604.476 162.114 604.476H174.146C175.112 604.476 175.9 604.798 176.509 605.442C177.118 606.051 177.422 606.821 177.422 607.752V658.724C177.422 659.69 177.1 660.478 176.455 661.087C175.846 661.696 175.076 662 174.146 662H162.114C161.147 662 160.36 661.696 159.751 661.087C159.142 660.478 158.838 659.69 158.838 658.724ZM190.85 658.724V588.309C190.85 587.342 191.154 586.554 191.763 585.945C192.407 585.301 193.195 584.979 194.126 584.979H206.157C207.088 584.979 207.858 585.301 208.467 585.945C209.111 586.554 209.434 587.342 209.434 588.309V658.724C209.434 659.655 209.111 660.442 208.467 661.087C207.858 661.696 207.088 662 206.157 662H194.126C193.195 662 192.407 661.696 191.763 661.087C191.154 660.442 190.85 659.655 190.85 658.724ZM217.598 607.859C217.311 606.928 217.15 606.159 217.114 605.55C217.114 603.974 218.009 603.169 219.8 603.133H229.79C231.473 603.133 232.977 603.562 234.302 604.422C235.627 605.245 236.54 606.391 237.041 607.859L245.85 636.81L254.551 607.859C255.518 604.708 257.559 603.133 260.674 603.133H270.181C273.332 603.133 275.373 604.708 276.304 607.859L285.005 636.81L293.813 607.859C294.315 606.391 295.228 605.245 296.553 604.422C297.878 603.562 299.382 603.133 301.064 603.133H311.055C312.809 603.133 313.704 603.938 313.74 605.55C313.74 606.194 313.579 606.964 313.257 607.859L296.982 657.273C296.481 658.742 295.586 659.905 294.297 660.765C293.008 661.588 291.629 662 290.161 662H282.588C281.12 662 279.723 661.57 278.398 660.711C277.074 659.816 276.196 658.67 275.767 657.273L265.454 625.262L255.088 657.273C254.658 658.67 253.781 659.816 252.456 660.711C251.131 661.57 249.735 662 248.267 662H240.693C239.225 662 237.847 661.588 236.558 660.765C235.269 659.905 234.373 658.742 233.872 657.273L217.598 607.859ZM321.475 591.907V590.081C321.475 588.183 322.012 586.679 323.086 585.569C324.196 584.459 325.718 583.904 327.651 583.904H334.312C336.209 583.904 337.713 584.459 338.823 585.569C339.933 586.644 340.488 588.147 340.488 590.081V591.907C340.488 593.805 339.933 595.309 338.823 596.419C337.749 597.529 336.245 598.084 334.312 598.084H327.651C325.754 598.084 324.25 597.529 323.14 596.419C322.03 595.309 321.475 593.805 321.475 591.907ZM321.689 658.724V607.752C321.689 606.785 321.994 605.997 322.603 605.389C323.247 604.78 324.035 604.476 324.966 604.476H336.997C337.964 604.476 338.752 604.798 339.36 605.442C339.969 606.051 340.273 606.821 340.273 607.752V658.724C340.273 659.69 339.951 660.478 339.307 661.087C338.698 661.696 337.928 662 336.997 662H324.966C323.999 662 323.211 661.696 322.603 661.087C321.994 660.478 321.689 659.69 321.689 658.724ZM353.701 658.724V606.463C353.701 605.496 354.006 604.708 354.614 604.1C355.259 603.455 356.047 603.133 356.978 603.133H369.009C369.94 603.133 370.71 603.455 371.318 604.1C371.963 604.708 372.285 605.496 372.285 606.463V609.847C378.444 604.655 384.997 602.059 391.943 602.059C398.926 602.059 404.601 604.189 408.97 608.45C413.338 612.675 415.522 619.157 415.522 627.894V658.724C415.522 659.655 415.2 660.442 414.556 661.087C413.947 661.696 413.159 662 412.192 662H400.215C399.284 662 398.496 661.696 397.852 661.087C397.243 660.442 396.938 659.655 396.938 658.724V627.894C396.938 619.336 393.519 615.057 386.68 615.057C382.204 615.057 377.406 617.617 372.285 622.737V658.724C372.285 659.655 371.963 660.442 371.318 661.087C370.71 661.696 369.94 662 369.009 662H356.978C356.047 662 355.259 661.696 354.614 661.087C354.006 660.442 353.701 659.655 353.701 658.724ZM451.777 663.074C444.294 663.074 438.027 660.442 432.979 655.179C427.965 649.915 425.459 642.378 425.459 632.566C425.459 622.719 428.055 615.182 433.247 609.954C438.475 604.69 445.493 602.059 454.302 602.059C458.849 602.059 464.023 602.972 469.824 604.798V588.309C469.824 587.342 470.129 586.554 470.737 585.945C471.382 585.301 472.17 584.979 473.101 584.979H485.078C486.045 584.979 486.833 585.301 487.441 585.945C488.086 586.554 488.408 587.342 488.408 588.309V658.724C488.408 659.655 488.086 660.442 487.441 661.087C486.833 661.696 486.045 662 485.078 662H474.766C473.799 662 473.011 661.696 472.402 661.087C471.794 660.442 471.489 659.655 471.489 658.724V657.059C465.832 661.069 459.261 663.074 451.777 663.074ZM458.169 615.057C453.228 615.057 449.736 616.453 447.695 619.246C445.654 622.003 444.634 626.443 444.634 632.566C444.634 638.689 445.601 643.147 447.534 645.94C449.468 648.733 452.368 650.13 456.235 650.13C460.138 650.13 464.668 648.519 469.824 645.296V617.205C465.205 615.773 461.32 615.057 458.169 615.057ZM546.792 652.923C540.168 646.585 536.855 636.792 536.855 623.543C536.855 610.258 540.168 600.447 546.792 594.109C553.452 587.736 563.424 584.549 576.709 584.549H588.687C596.815 584.549 603.994 586.661 610.225 590.887C616.491 595.112 619.624 600.895 619.624 608.235C619.624 610.348 618.997 611.87 617.744 612.801C616.491 613.696 615.273 614.144 614.092 614.144H607.7C604.406 614.144 601.846 612.174 600.02 608.235C597.37 602.578 592.965 599.749 586.807 599.749H577.246C569.404 599.749 564.087 601.432 561.294 604.798C558.501 608.164 557.104 614.394 557.104 623.489C557.104 632.584 558.501 638.833 561.294 642.234C564.087 645.6 569.404 647.283 577.246 647.283H587.935C594.093 647.283 598.48 644.454 601.094 638.797C602.92 634.822 605.498 632.835 608.828 632.835H615.22C616.903 632.835 618.228 633.462 619.194 634.715C620.197 635.968 620.698 637.329 620.698 638.797C620.698 646.137 617.583 651.92 611.353 656.146C605.122 660.335 597.943 662.43 589.814 662.43H576.709C563.424 662.43 553.452 659.261 546.792 652.923ZM626.768 642.288C626.768 640.175 627.394 638.672 628.647 637.776C629.901 636.845 631.118 636.38 632.3 636.38H638.691C641.914 636.38 644.367 638.134 646.05 641.644C647.733 645.153 651.51 646.907 657.383 646.907L676.182 647.283C682.484 647.283 685.635 645.224 685.635 641.106C685.635 637.991 681.785 635.538 674.087 633.748C670.649 632.924 666.854 632.119 662.7 631.331C658.547 630.507 654.411 629.487 650.293 628.27C646.211 627.052 642.451 625.62 639.014 623.973C635.576 622.326 632.783 620.07 630.635 617.205C628.522 614.305 627.466 610.903 627.466 607C627.466 599.803 630.026 594.271 635.146 590.403C640.267 586.5 649.076 584.549 661.572 584.549L675.215 584.871C682.555 584.871 689.162 586.769 695.034 590.564C700.942 594.324 703.896 599.033 703.896 604.69C703.896 606.803 703.27 608.325 702.017 609.256C700.763 610.187 699.564 610.652 698.418 610.652H692.026C688.804 610.652 686.351 608.898 684.668 605.389C682.985 601.844 679.207 600.071 673.335 600.071L657.168 599.749C650.866 599.749 647.715 601.808 647.715 605.926C647.715 608.182 649.702 610.026 653.677 611.458C657.687 612.89 662.521 614.161 668.179 615.271C673.872 616.346 679.583 617.653 685.312 619.192C691.042 620.732 695.894 623.274 699.868 626.819C703.879 630.328 705.884 634.715 705.884 639.979C705.884 647.176 703.306 652.726 698.149 656.629C693.029 660.496 684.238 662.43 671.777 662.43L655.503 662.107C648.162 662.107 641.538 660.228 635.63 656.468C629.722 652.672 626.768 647.946 626.768 642.288ZM712.49 642.288C712.49 640.175 713.117 638.672 714.37 637.776C715.623 636.845 716.841 636.38 718.022 636.38H724.414C727.637 636.38 730.09 638.134 731.772 641.644C733.455 645.153 737.233 646.907 743.105 646.907L761.904 647.283C768.206 647.283 771.357 645.224 771.357 641.106C771.357 637.991 767.508 635.538 759.81 633.748C756.372 632.924 752.576 632.119 748.423 631.331C744.269 630.507 740.133 629.487 736.016 628.27C731.934 627.052 728.174 625.62 724.736 623.973C721.299 622.326 718.506 620.07 716.357 617.205C714.245 614.305 713.188 610.903 713.188 607C713.188 599.803 715.749 594.271 720.869 590.403C725.99 586.5 734.798 584.549 747.295 584.549L760.938 584.871C768.278 584.871 774.884 586.769 780.757 590.564C786.665 594.324 789.619 599.033 789.619 604.69C789.619 606.803 788.993 608.325 787.739 609.256C786.486 610.187 785.286 610.652 784.141 610.652H777.749C774.526 610.652 772.074 608.898 770.391 605.389C768.708 601.844 764.93 600.071 759.058 600.071L742.891 599.749C736.589 599.749 733.438 601.808 733.438 605.926C733.438 608.182 735.425 610.026 739.399 611.458C743.41 612.89 748.244 614.161 753.901 615.271C759.595 616.346 765.306 617.653 771.035 619.192C776.764 620.732 781.616 623.274 785.591 626.819C789.601 630.328 791.606 634.715 791.606 639.979C791.606 647.176 789.028 652.726 783.872 656.629C778.752 660.496 769.961 662.43 757.5 662.43L741.226 662.107C733.885 662.107 727.261 660.228 721.353 656.468C715.444 652.672 712.49 647.946 712.49 642.288Z" fill="#00ACC1"/>
</svg>
