<svg width="50" height="50" viewBox="0 0 50 50" fill="none" xmlns="http://www.w3.org/2000/svg">
<path d="M49.18 24.59L41.97 31.79L41.981 41.98H31.79L24.59 49.18L17.39 41.981H7.2V31.8L0 24.601L7.2 17.391L7.19 7.21H17.38L24.58 0L31.78 7.2H41.97V17.39L49.18 24.59ZM37.361 29.88C40.271 22.83 36.921 14.74 29.871 11.82C24.481 9.59 18.271 10.99 14.35 15.299C17.401 13.329 21.231 12.989 24.58 14.379C30.22 16.709 32.9 23.179 30.57 28.819C28.23 34.459 21.759 37.139 16.12 34.809C15.5 34.548 14.91 34.239 14.349 33.878C15.719 35.389 17.41 36.578 19.299 37.358C26.35 40.28 34.441 36.93 37.361 29.88Z" fill="#333333"/>
</svg>
