<svg xmlns="http://www.w3.org/2000/svg" x="0" y="0" height="100px" viewBox="0 0 100 125">
  <g fillRule="evenodd" color="#000">
    <path
      d="M8 964.378a2 2 0 00-2 2v57.28a2 2 0 002 2h12.45l-2.315 12.32a2 2 0 003.157 1.975l19.259-14.296H92a2 2 0 002-2v-57.28a2 2 0 00-2-2H8zm2 4h80v53.28H39.89a2 2 0 00-1.192.394l-15.69 11.646 1.817-9.671a2 2 0 00-1.965-2.37H10v-53.28z"

      enableBackground="accumulate"
      overflow="visible"
      transform="translate(0 -952.362)"
    ></path>
    <path
      d="M33.157 1002.05a2 2 0 00-1.26 3.56c10.697 8.835 25.591 8.763 36.206 0a2 2 0 10-2.546-3.085c-9.225 7.617-21.811 7.684-31.114 0a2 2 0 00-1.286-.476zM30.457 978.393c-3.842 0-7 3.158-7 7s3.158 7 7 7c3.849 0 7-3.163 7-7 0-3.838-3.151-7-7-7zM69.52 978.393c-3.842 0-7 3.158-7 7s3.158 7 7 7 7-3.158 7-7-3.158-7-7-7z"

      enableBackground="accumulate"
      overflow="visible"
      transform="translate(0 -952.362)"
    ></path>
  </g>
</svg>