<svg height="80" viewBox="0 0 100 100" fill="none" xmlns="http://www.w3.org/2000/svg">
<path fill-rule="evenodd" clip-rule="evenodd" d="M7.99999 12.0156C7.46967 12.0156 6.96109 12.2263 6.58609 12.6013C6.2111 12.9763 6.00039 13.4849 6.00031 14.0153V71.2952C6.00039 71.8256 6.21109 72.3341 6.58609 72.7091C6.96109 73.0841 7.46967 73.2948 7.99999 73.2949H20.4497L18.1347 85.6158C18.0606 86.011 18.1073 86.4194 18.2688 86.7876C18.4302 87.1558 18.6989 87.4668 19.0397 87.6801C19.3806 87.8933 19.7778 87.9988 20.1796 87.9829C20.5813 87.967 20.9689 87.8303 21.2919 87.5908L40.5509 73.2949H92C92.5303 73.2948 93.0389 73.0841 93.4139 72.7091C93.7889 72.3341 93.9996 71.8256 93.9997 71.2952V14.0153C93.9996 13.4849 93.7889 12.9763 93.4139 12.6013C93.0389 12.2263 92.5303 12.0156 92 12.0156H7.99999ZM9.99968 16.015H90.0003V69.2955H39.89C39.4607 69.2955 39.0428 69.4337 38.6981 69.6895L23.0081 81.3361L24.8253 71.6646C24.8795 71.3757 24.8694 71.0784 24.7957 70.7939C24.722 70.5095 24.5865 70.2447 24.3989 70.0186C24.2113 69.7924 23.9761 69.6103 23.7101 69.4854C23.4441 69.3604 23.1539 69.2956 22.86 69.2955H9.99968V16.015Z" fill="#222222"/>
<path fill-rule="evenodd" clip-rule="evenodd" d="M33.1572 49.6872C32.7423 49.6854 32.3371 49.8127 31.9978 50.0514C31.6584 50.2901 31.4017 50.6285 31.2632 51.0196C31.1247 51.4107 31.1113 51.8351 31.2248 52.2342C31.3382 52.6333 31.573 52.9872 31.8966 53.2469C42.5943 62.0832 57.4883 62.0108 68.1031 53.2472C68.3113 53.0819 68.4844 52.8767 68.6123 52.6437C68.7402 52.4107 68.8204 52.1545 68.8482 51.8902C68.8759 51.6258 68.8507 51.3585 68.774 51.104C68.6973 50.8495 68.5706 50.6128 68.4014 50.4079C68.2321 50.2029 68.0237 50.0338 67.7883 49.9102C67.553 49.7867 67.2953 49.7113 67.0305 49.6886C66.7656 49.6658 66.4989 49.6961 66.2459 49.7776C65.9929 49.8591 65.7587 49.9902 65.5569 50.1632C56.3317 57.7795 43.7457 57.8472 34.4435 50.1635C34.0843 49.8581 33.6287 49.6894 33.1572 49.6872Z" fill="#222222"/>
<path fill-rule="evenodd" clip-rule="evenodd" d="M30.4575 26.0304C26.6155 26.0304 23.4575 29.1884 23.4575 33.0304C23.4575 36.8724 26.6155 40.0304 30.4575 40.0304C34.3056 40.0304 37.4575 36.8676 37.4575 33.0304C37.4575 29.1932 34.3056 26.0304 30.4575 26.0304Z" fill="#222222"/>
<path fill-rule="evenodd" clip-rule="evenodd" d="M69.52 26.0304C65.678 26.0304 62.52 29.1884 62.52 33.0304C62.52 36.8724 65.678 40.0304 69.52 40.0304C73.362 40.0304 76.52 36.8724 76.52 33.0304C76.52 29.1884 73.362 26.0304 69.52 26.0304Z" fill="#222222"/>
</svg>
